PathFileType	4	(X/Y/Z)	Patient4_TMGait_0pt5_01_left_13.trc.trc
DataRate	CameraRate	NumFrames	NumMarkers	Units	OrigDataRate	OrigDataStartFrame	OrigNumFrames
73.684210526316	73.684210526316	5	33	mm	73.684210526316	106	       141
Frame#	Time	L.ASIS			Sacral			L.Shoulder			Chest			R.Shoulder			Neck			R.ASIS			R.Thigh.Superior			R.Thigh.Lateral			R.Thigh.Inferior			R.Patella			L.Thigh.Superior			L.Thigh.Lateral			L.Thigh.Inferior			L.Patella			L.Shank.Superior			L.Shank.Lateral			L.Shank.Inferior			R.Shank.Superior			R.Shank.Lateral			R.Shank.Inferior			R.Heel			R.Midfoot.Superior			R.Midfoot.Lateral			R.Toe			L.Heel			L.Midfoot.Lateral			L.Midfoot.Superior			L.Toe			L.Elbow			L.Wrist			R.Elbow			R.Wrist			
		X1	Y1	Z1	X2	Y2	Z2	X3	Y3	Z3	X4	Y4	Z4	X5	Y5	Z5	X6	Y6	Z6	X7	Y7	Z7	X8	Y8	Z8	X9	Y9	Z9	X10	Y10	Z10	X11	Y11	Z11	X12	Y12	Z12	X13	Y13	Z13	X14	Y14	Z14	X15	Y15	Z15	X16	Y16	Z16	X17	Y17	Z17	X18	Y18	Z18	X19	Y19	Z19	X20	Y20	Z20	X21	Y21	Z21	X22	Y22	Z22	X23	Y23	Z23	X24	Y24	Z24	X25	Y25	Z25	X26	Y26	Z26	X27	Y27	Z27	X28	Y28	Z28	X29	Y29	Z29	X30	Y30	Z30	X31	Y31	Z31	X32	Y32	Z32	X33	Y33	Z33	

106	18.755000000000	762.752012670751	972.294475269489	365.039686113664	563.820681356977	1011.494419256916	541.917859835337	718.390577229685	1444.870606777998	363.915728582273	840.879950005952	1366.157784249435	507.019007975765	782.830294554944	1433.433831722747	694.384460250120	741.519227343742	1500.142760287946	515.820755558125	800.786881135845	940.896864146570	636.163844320861	824.573168245151	737.010872421880	601.947432547734	738.258495721432	632.970444900125	663.619210553919	806.412191516729	576.889621894769	579.352401937291	799.808494983773	490.196344124929	583.085672966766	849.936776634285	789.603195164510	388.831310137008	803.327262205427	662.671333911509	313.461285017601	905.085431754767	600.915257294331	374.121450420090	927.915291316773	524.291013146499	367.387038262730	892.870142989901	449.484195999568	355.860241242272	791.528299777445	347.503139759444	301.407388699103	843.414403482021	226.594707192399	354.331463266763	770.920001847697	402.764714680336	589.009806343942	697.806865039586	298.936797939241	646.823495506541	738.222314032912	205.339030980116	581.269261508609	601.212746579018	42.608858060641	544.179854312375	771.831283165181	96.792605943747	584.863789940396	682.434661947388	36.174288426930	621.612973077791	890.737081302685	44.449390560140	616.339935827427	710.997847923262	72.628414794818	385.761422791848	783.595935501597	68.549344032409	304.992441286907	869.006424447231	127.441682493272	329.502427054515	992.275010928089	73.881255230621	298.841048126178	633.665603627865	1095.468192850225	259.676539828330	651.587004246865	836.579883800736	244.577207766603	859.973654000252	1098.127103492220	812.916610625592	1087.313114369745	984.328832902182	763.443102744059	
107	18.768571428571	761.041333918339	972.338783428675	365.437282513079	562.941872878221	1012.014055502258	543.510088187876	717.307594694423	1444.849463438564	364.719722312603	840.739519911059	1365.767331499885	506.770121732030	784.440920342850	1433.325222466081	694.540525076319	741.719515070486	1500.020037470414	516.417212422811	800.303081417233	940.622831996103	636.423306968334	821.798332899409	736.228653226158	602.034840373632	734.636702027496	632.837812067392	664.284545125026	801.554830033150	576.135236372169	579.719046206847	794.096089714519	489.825710509403	583.529776650010	847.198400210339	789.232136007145	389.899412093550	801.038786915811	662.877368033546	313.370654656506	901.572938594586	600.707356044880	375.704276679746	925.925342962681	526.763135684478	368.767441137079	895.452019697968	452.285875005701	356.279465927222	802.493921988939	343.485778934900	300.209401690086	862.447224673022	226.258160795174	353.677463973649	765.016896967633	402.513609696110	589.311435623936	691.736337609761	298.835490848137	647.158185772276	731.745630442280	205.189275309573	581.388605500784	594.383564648841	42.588588782166	544.234790832580	764.945051921968	96.716317022257	584.822777548616	675.588354213646	36.155071562575	621.629651369081	883.869291582065	44.396279216930	616.360342260585	741.000987448494	63.076218725664	383.515058830943	815.100865297227	63.779887881613	303.757623479642	895.981830799696	128.528608289224	329.134145323795	1023.256916792267	83.443742322605	300.432132690700	625.399612633895	1097.370060271462	261.129767983729	634.884583166743	838.305723643753	246.156175732514	870.025036005927	1100.931468349093	812.649469500179	1103.027669125183	1002.326946804495	758.957236664311	
108	18.782142857143	759.488124506651	972.164978030917	365.725493195230	562.308605192861	1012.333536697738	545.003885782285	716.301331107655	1444.766343939938	365.393625853475	840.584177626699	1365.315805210487	506.452240085957	785.878769494418	1433.094141972893	694.576158453186	741.870670564173	1499.801377747168	516.902487343768	799.949042087836	940.316956037976	636.613503796151	819.239508626022	735.413877556998	602.182146029065	731.194276033871	632.652582708027	664.909958802215	796.934094940092	575.363223427612	580.104372073426	788.630908390313	489.404208919742	583.967746702534	844.263698117393	788.378188389028	390.903137017193	798.540351218879	662.762684987915	313.086289870405	897.867419685682	600.088227665873	377.053876902053	923.587683369038	528.817413303333	369.991215751304	897.474677338947	454.972368196332	356.639690390723	812.993101626649	340.094968533193	299.112722200527	880.412171207840	226.984824652687	353.288881611235	759.278422750341	402.218446936207	589.589282165940	685.806779588102	298.722265341168	647.496463228931	725.326735300513	205.009877710863	581.500345594089	587.548925269359	42.574351779994	544.298907340412	758.051975304959	96.635397347927	584.780621441887	668.739111493152	36.134073234972	621.654447175681	877.005503053313	44.328183179620	616.378839404807	769.882196419343	55.877743768058	381.741385723804	845.329579531660	60.804607559981	303.123596272283	921.611054915803	130.827624673228	329.230205366949	1052.207102784584	93.722010686543	302.848280618053	617.407246399845	1099.403027877228	262.346430054084	619.283533436758	840.384748423302	247.678501232973	879.730001569490	1103.735820752820	811.929608908536	1117.289969335812	1020.504927941887	754.082005685250	
109	18.795714285714	758.090226645159	971.805230366496	365.901595747148	561.952102731570	1012.429312126179	546.404519411005	715.357064592303	1444.627601136294	365.934135753001	840.402031424337	1364.827292068022	506.071724095696	787.117872494938	1432.766076680291	694.497203370776	741.956145602954	1499.499302411459	517.271232887418	799.739085786240	939.983080864998	636.725425936391	816.908381128488	734.570847419174	602.358699359093	727.945609676352	632.418734758280	665.470211936453	792.564411041669	574.577125049428	580.481168617453	783.422377089834	488.926911007411	584.365960805696	841.281187185229	787.181820832796	391.776610773715	795.977228822998	662.389457261958	312.662602862278	894.227266249700	599.203708166206	378.095963655977	921.127174313576	530.505681238654	371.015792433862	899.061615493383	457.508520671670	356.920250357227	822.816942718425	337.369853983609	298.203115323056	896.999269843408	228.620514957661	353.139292468716	753.714682107728	401.878633099538	589.824638550856	680.021781909000	298.603469150875	647.819935053919	718.972911055053	204.805334455827	581.596945366018	580.708349515636	42.568750189112	544.365922763984	751.159672591893	96.554788760446	584.742544275396	661.887291505641	36.112635148482	621.684527444206	870.147375211911	44.246377658117	616.396088406657	796.967446180466	50.962506236479	380.542631928953	873.568305664945	59.441881079797	303.087479574890	945.397984641074	134.071230083201	329.696051844163	1078.629573083155	104.209823343495	305.797292901038	609.749309455722	1101.528376922447	263.359346792011	604.825986495741	842.700727643672	249.146063644595	889.068408762820	1106.537797008530	810.759015006239	1130.075378178658	1038.689194894767	748.860023260139	
110	18.809285714286	756.851940483080	971.296254033110	365.962951286140	561.877812435163	1012.292766702570	547.704899065875	714.453270261836	1444.437880361916	366.339651627220	840.181693194514	1364.325393925413	505.630711963727	788.141986558746	1432.366353113204	694.308219102198	741.958111261411	1499.125653390200	517.519424912847	799.681687917540	939.625097218634	636.745816815034	814.807014341519	733.704886596892	602.523837362157	724.904492541227	632.141453441007	665.942206454361	788.454689934976	573.780841208613	580.819256475032	778.475742750812	488.389899883197	584.692335420637	838.429984564140	785.797819009775	392.456217651060	793.490344932457	661.808629009177	312.181812520159	890.894875488135	598.187616167438	378.790167188591	918.761883965857	531.870469999701	371.818644455455	900.337402202705	459.832685677060	357.117392496754	831.754195997314	335.278467985773	297.561221428466	911.924746697206	230.912179378640	353.191973306271	748.334723604160	401.494516675624	590.001169451832	674.382766005222	298.485744553153	648.110222760160	712.691116367491	204.579928723073	581.671476328461	573.863048760338	42.574003260193	544.431215343906	744.276635106559	96.479408603687	584.714116138849	655.034035939887	36.092023591199	621.716106662355	863.296559682901	44.150146786627	616.413270661920	821.617129688411	48.084598926140	379.987231922006	899.132656986611	59.379981266431	303.598534671278	966.876934430663	137.892172121951	330.409671333840	1102.091231055673	114.335077712594	308.919398302386	602.475968065985	1103.699501562729	264.200557229519	591.533472735657	845.143650144524	250.550593229871	898.014418634571	1109.337509332982	809.150014961368	1141.381589311728	1056.706470208845	743.339334527976	
